<svg height="512" viewBox="0 0 48 48" width="512" xmlns="http://www.w3.org/2000/svg"><g id="_12-neutral" data-name="12-neutral"><circle cx="24" cy="24" fill="#ffd364" r="23"/><g fill="#273941"><ellipse cx="33" cy="18" rx="3" ry="4"/><ellipse cx="15" cy="18" rx="3" ry="4"/><ellipse cx="33" cy="18" rx="2" ry="3"/><ellipse cx="15" cy="18" rx="2" ry="3"/></g><circle cx="34" cy="17" fill="#f6fafd" r="1"/><circle cx="16" cy="17" fill="#f6fafd" r="1"/><path d="m24 4c12.15 0 22 8.507 22 19h.975a23 23 0 0 0 -45.95 0h.975c0-10.493 9.85-19 22-19z" fill="#ffeb95"/><path d="m46 23c0 10.493-9.85 19-22 19s-22-8.507-22-19h-.975c-.014.332-.025.665-.025 1a23 23 0 0 0 46 0c0-.335-.011-.668-.025-1z" fill="#ffb839"/><path d="m16 32h16v2h-16z" fill="#273941"/><ellipse cx="37" cy="9" fill="#f6fafd" rx=".825" ry="1.148" transform="matrix(.707 -.707 .707 .707 4.48 28.81)"/><ellipse cx="30.746" cy="4.5" fill="#f6fafd" rx=".413" ry=".574" transform="matrix(.707 -.707 .707 .707 5.829 23.067)"/><ellipse cx="34" cy="7" fill="#f6fafd" rx="1.65" ry="2.297" transform="matrix(.707 -.707 .707 .707 5.015 26.102)"/><path d="m24 48a24 24 0 1 1 24-24 24.028 24.028 0 0 1 -24 24zm0-46a22 22 0 1 0 22 22 22.025 22.025 0 0 0 -22-22z" fill="#141e21"/><path d="m33 22c-1.683 0-3-1.757-3-4s1.317-4 3-4 3 1.757 3 4-1.317 4-3 4zm0-6c-.408 0-1 .779-1 2s.592 2 1 2 1-.779 1-2-.592-2-1-2z" fill="#141e21"/><path d="m15 22c-1.683 0-3-1.757-3-4s1.317-4 3-4 3 1.757 3 4-1.317 4-3 4zm0-6c-.408 0-1 .779-1 2s.592 2 1 2 1-.779 1-2-.592-2-1-2z" fill="#141e21"/><path d="m16 32h16v2h-16z" fill="#141e21"/></g></svg>